<svg viewBox="0 0 330 200" xmlns="http://www.w3.org/2000/svg"><g><g><g><g><g><line x1="66.71875" y1="179" x2="61.71875" y2="179" style="visibility: inherit;" fill="rgb(0, 0, 0)" stroke="rgb(204, 204, 204)" stroke-width="1px"></line><line x1="66.71875" y1="164.08333333333331" x2="61.71875" y2="164.08333333333331" style="visibility: inherit;" fill="rgb(0, 0, 0)" stroke="rgb(204, 204, 204)" stroke-width="1px"></line><line x1="66.71875" y1="149.16666666666669" x2="61.71875" y2="149.16666666666669" style="visibility: inherit;" fill="rgb(0, 0, 0)" stroke="rgb(204, 204, 204)" stroke-width="1px"></line><line x1="66.71875" y1="134.25" x2="61.71875" y2="134.25" style="visibility: inherit;" fill="rgb(0, 0, 0)" stroke="rgb(204, 204, 204)" stroke-width="1px"></line><line x1="66.71875" y1="119.33333333333334" x2="61.71875" y2="119.33333333333334" style="visibility: inherit;" fill="rgb(0, 0, 0)" stroke="rgb(204, 204, 204)" stroke-width="1px"></line><line x1="66.71875" y1="104.41666666666666" x2="61.71875" y2="104.41666666666666" style="visibility: inherit;" fill="rgb(0, 0, 0)" stroke="rgb(204, 204, 204)" stroke-width="1px"></line><line x1="66.71875" y1="89.5" x2="61.71875" y2="89.5" style="visibility: inherit;" fill="rgb(0, 0, 0)" stroke="rgb(204, 204, 204)" stroke-width="1px"></line><line x1="66.71875" y1="74.58333333333333" x2="61.71875" y2="74.58333333333333" style="visibility: inherit;" fill="rgb(0, 0, 0)" stroke="rgb(204, 204, 204)" stroke-width="1px"></line><line x1="66.71875" y1="59.66666666666667" x2="61.71875" y2="59.66666666666667" style="visibility: inherit;" fill="rgb(0, 0, 0)" stroke="rgb(204, 204, 204)" stroke-width="1px"></line><line x1="66.71875" y1="44.75" x2="61.71875" y2="44.75" style="visibility: inherit;" fill="rgb(0, 0, 0)" stroke="rgb(204, 204, 204)" stroke-width="1px"></line><line x1="66.71875" y1="29.833333333333325" x2="61.71875" y2="29.833333333333325" style="visibility: inherit;" fill="rgb(0, 0, 0)" stroke="rgb(204, 204, 204)" stroke-width="1px"></line><line x1="66.71875" y1="14.916666666666673" x2="61.71875" y2="14.916666666666673" style="visibility: inherit;" fill="rgb(0, 0, 0)" stroke="rgb(204, 204, 204)" stroke-width="1px"></line><line x1="66.71875" y1="0" x2="61.71875" y2="0" style="visibility: inherit;" fill="rgb(0, 0, 0)" stroke="rgb(204, 204, 204)" stroke-width="1px"></line></g><g transform="translate(56.71875, 0)"><text x="0" y="179" dx="0em" dy="0.3em" style="text-anchor: end; visibility: hidden; font-family: Roboto, sans-serif; font-size: 12px; font-weight: 200;" fill="rgb(33, 33, 33)" stroke="none" stroke-width="1px">0.978</text><text x="0" y="164.08333333333331" dx="0em" dy="0.3em" style="text-anchor: end; visibility: inherit; font-family: Roboto, sans-serif; font-size: 12px; font-weight: 200;" fill="rgb(33, 33, 33)" stroke="none" stroke-width="1px">0.98</text><text x="0" y="149.16666666666669" dx="0em" dy="0.3em" style="text-anchor: end; visibility: hidden; font-family: Roboto, sans-serif; font-size: 12px; font-weight: 200;" fill="rgb(33, 33, 33)" stroke="none" stroke-width="1px">0.982</text><text x="0" y="134.25" dx="0em" dy="0.3em" style="text-anchor: end; visibility: inherit; font-family: Roboto, sans-serif; font-size: 12px; font-weight: 200;" fill="rgb(33, 33, 33)" stroke="none" stroke-width="1px">0.984</text><text x="0" y="119.33333333333334" dx="0em" dy="0.3em" style="text-anchor: end; visibility: hidden; font-family: Roboto, sans-serif; font-size: 12px; font-weight: 200;" fill="rgb(33, 33, 33)" stroke="none" stroke-width="1px">0.986</text><text x="0" y="104.41666666666666" dx="0em" dy="0.3em" style="text-anchor: end; visibility: inherit; font-family: Roboto, sans-serif; font-size: 12px; font-weight: 200;" fill="rgb(33, 33, 33)" stroke="none" stroke-width="1px">0.988</text><text x="0" y="89.5" dx="0em" dy="0.3em" style="text-anchor: end; visibility: hidden; font-family: Roboto, sans-serif; font-size: 12px; font-weight: 200;" fill="rgb(33, 33, 33)" stroke="none" stroke-width="1px">0.99</text><text x="0" y="74.58333333333333" dx="0em" dy="0.3em" style="text-anchor: end; visibility: inherit; font-family: Roboto, sans-serif; font-size: 12px; font-weight: 200;" fill="rgb(33, 33, 33)" stroke="none" stroke-width="1px">0.992</text><text x="0" y="59.66666666666667" dx="0em" dy="0.3em" style="text-anchor: end; visibility: hidden; font-family: Roboto, sans-serif; font-size: 12px; font-weight: 200;" fill="rgb(33, 33, 33)" stroke="none" stroke-width="1px">0.994</text><text x="0" y="44.75" dx="0em" dy="0.3em" style="text-anchor: end; visibility: inherit; font-family: Roboto, sans-serif; font-size: 12px; font-weight: 200;" fill="rgb(33, 33, 33)" stroke="none" stroke-width="1px">0.996</text><text x="0" y="29.833333333333325" dx="0em" dy="0.3em" style="text-anchor: end; visibility: hidden; font-family: Roboto, sans-serif; font-size: 12px; font-weight: 200;" fill="rgb(33, 33, 33)" stroke="none" stroke-width="1px">0.998</text><text x="0" y="14.916666666666673" dx="0em" dy="0.3em" style="text-anchor: end; visibility: inherit; font-family: Roboto, sans-serif; font-size: 12px; font-weight: 200;" fill="rgb(33, 33, 33)" stroke="none" stroke-width="1px">1</text><text x="0" y="0" dx="0em" dy="0.3em" style="text-anchor: end; visibility: hidden; font-family: Roboto, sans-serif; font-size: 12px; font-weight: 200;" fill="rgb(33, 33, 33)" stroke="none" stroke-width="1px">1</text></g><line x1="66.71875" y1="0" x2="66.71875" y2="179" fill="rgb(0, 0, 0)" stroke="rgb(204, 204, 204)" stroke-width="1px"></line></g></g><g transform="translate(66, 0)" clip-path="url(#clip_0)"><clipPath id="clip_0"><rect width="263" height="179"></rect></clipPath><g><g><g><line x1="0" y1="0" x2="0" y2="179" fill="rgb(0, 0, 0)" stroke="rgb(66, 66, 66)" stroke-width="1px" opacity="0.25"></line><line x1="21.940104166666664" y1="0" x2="21.940104166666664" y2="179" fill="rgb(0, 0, 0)" stroke="rgb(66, 66, 66)" stroke-width="1px" opacity="0.25"></line><line x1="43.88020833333333" y1="0" x2="43.88020833333333" y2="179" fill="rgb(0, 0, 0)" stroke="rgb(66, 66, 66)" stroke-width="1px" opacity="0.25"></line><line x1="65.8203125" y1="0" x2="65.8203125" y2="179" fill="rgb(0, 0, 0)" stroke="rgb(66, 66, 66)" stroke-width="1px" opacity="0.25"></line><line x1="87.76041666666666" y1="0" x2="87.76041666666666" y2="179" fill="rgb(0, 0, 0)" stroke="rgb(66, 66, 66)" stroke-width="1px" opacity="0.25"></line><line x1="109.70052083333334" y1="0" x2="109.70052083333334" y2="179" fill="rgb(0, 0, 0)" stroke="rgb(66, 66, 66)" stroke-width="1px" opacity="0.25"></line><line x1="131.640625" y1="0" x2="131.640625" y2="179" fill="rgb(0, 0, 0)" stroke="rgb(66, 66, 66)" stroke-width="1px" opacity="0.25"></line><line x1="153.58072916666669" y1="0" x2="153.58072916666669" y2="179" fill="rgb(0, 0, 0)" stroke="rgb(66, 66, 66)" stroke-width="1px" opacity="0.25"></line><line x1="175.52083333333331" y1="0" x2="175.52083333333331" y2="179" fill="rgb(0, 0, 0)" stroke="rgb(66, 66, 66)" stroke-width="1px" opacity="0.25"></line><line x1="197.4609375" y1="0" x2="197.4609375" y2="179" fill="rgb(0, 0, 0)" stroke="rgb(66, 66, 66)" stroke-width="1px" opacity="0.25"></line><line x1="219.40104166666669" y1="0" x2="219.40104166666669" y2="179" fill="rgb(0, 0, 0)" stroke="rgb(66, 66, 66)" stroke-width="1px" opacity="0.25"></line><line x1="241.34114583333331" y1="0" x2="241.34114583333331" y2="179" fill="rgb(0, 0, 0)" stroke="rgb(66, 66, 66)" stroke-width="1px" opacity="0.25"></line><line x1="263.28125" y1="0" x2="263.28125" y2="179" fill="rgb(0, 0, 0)" stroke="rgb(66, 66, 66)" stroke-width="1px" opacity="0.25"></line></g><g><line x1="0" y1="179" x2="263.28125" y2="179" fill="rgb(0, 0, 0)" stroke="rgb(66, 66, 66)" stroke-width="1px" opacity="0.25"></line><line x1="0" y1="164.08333333333331" x2="263.28125" y2="164.08333333333331" fill="rgb(0, 0, 0)" stroke="rgb(66, 66, 66)" stroke-width="1px" opacity="0.25"></line><line x1="0" y1="149.16666666666669" x2="263.28125" y2="149.16666666666669" fill="rgb(0, 0, 0)" stroke="rgb(66, 66, 66)" stroke-width="1px" opacity="0.25"></line><line x1="0" y1="134.25" x2="263.28125" y2="134.25" fill="rgb(0, 0, 0)" stroke="rgb(66, 66, 66)" stroke-width="1px" opacity="0.25"></line><line x1="0" y1="119.33333333333334" x2="263.28125" y2="119.33333333333334" fill="rgb(0, 0, 0)" stroke="rgb(66, 66, 66)" stroke-width="1px" opacity="0.25"></line><line x1="0" y1="104.41666666666666" x2="263.28125" y2="104.41666666666666" fill="rgb(0, 0, 0)" stroke="rgb(66, 66, 66)" stroke-width="1px" opacity="0.25"></line><line x1="0" y1="89.5" x2="263.28125" y2="89.5" fill="rgb(0, 0, 0)" stroke="rgb(66, 66, 66)" stroke-width="1px" opacity="0.25"></line><line x1="0" y1="74.58333333333333" x2="263.28125" y2="74.58333333333333" fill="rgb(0, 0, 0)" stroke="rgb(66, 66, 66)" stroke-width="1px" opacity="0.25"></line><line x1="0" y1="59.66666666666667" x2="263.28125" y2="59.66666666666667" fill="rgb(0, 0, 0)" stroke="rgb(66, 66, 66)" stroke-width="1px" opacity="0.25"></line><line x1="0" y1="44.75" x2="263.28125" y2="44.75" fill="rgb(0, 0, 0)" stroke="rgb(66, 66, 66)" stroke-width="1px" opacity="0.25"></line><line x1="0" y1="29.833333333333325" x2="263.28125" y2="29.833333333333325" fill="rgb(0, 0, 0)" stroke="rgb(66, 66, 66)" stroke-width="1px" opacity="0.25"></line><line x1="0" y1="14.916666666666673" x2="263.28125" y2="14.916666666666673" fill="rgb(0, 0, 0)" stroke="rgb(66, 66, 66)" stroke-width="1px" opacity="0.25"></line><line x1="0" y1="0" x2="263.28125" y2="0" fill="rgb(0, 0, 0)" stroke="rgb(66, 66, 66)" stroke-width="1px" opacity="0.25"></line></g></g></g><g><g><line x1="0" y1="7473.249999999994" x2="263.28125" y2="7473.249999999994" fill="rgb(0, 0, 0)" stroke="rgb(153, 153, 153)" stroke-width="1.5px"></line></g></g><g><g><line x1="21.940104166666664" y1="0" x2="21.940104166666664" y2="179" fill="rgb(0, 0, 0)" stroke="rgb(153, 153, 153)" stroke-width="1.5px"></line></g></g><g><g><g><g><g><path stroke="rgb(0, 119, 187)" stroke-width="2px" d="M35.104166666666664,180.6550076715131L37.298177083333336,169.36156323759928L39.4921875,156.68080035533643L41.686197916666664,165.36263722172112L43.88020833333333,163.65129653642924L46.07421875,162.9275081276218L48.268229166666664,159.2082752732653L50.462239583333336,158.47275312340759L52.65625,152.6592808203029L54.85026041666667,147.68078998653007L57.044270833333336,147.97682784523613L59.23828125,148.75124477802387L61.432291666666664,150.110869833202L63.626302083333336,140.1861951712211L65.8203125,146.76184285905757L68.01432291666667,146.53043571843475L70.20833333333333,144.00486746721555L72.40234375,142.489539281458L74.59635416666667,139.19363311235992L76.79036458333334,145.27120104612405L78.984375,148.61935202739568L81.17838541666667,150.92662344480726L83.37239583333333,153.80272231040243L85.56640625,152.84329045187948L87.76041666666666,142.7209797567679L89.95442708333333,136.05100629491776L92.1484375,134.73393477128786L94.34244791666667,133.04872117654284L96.53645833333333,141.88262650784253L98.73046875,144.19949683403337L100.92447916666667,142.90470691230433L103.11848958333333,137.35441881169248L105.3125,136.41095303732155L107.50651041666667,143.3031998045264L109.70052083333334,142.06854586305698L111.89453125,139.23942926888105L114.08854166666667,144.70190269725896L116.28255208333333,140.81944337009082L118.4765625,139.9817041466876L120.67057291666666,142.76073837557416L122.86458333333333,162.62648911716707L125.05859375,154.855872985201L127.25260416666667,146.91182554342225L129.44661458333331,151.39384250988883L131.640625,147.81790218242494L133.83463541666666,142.98742590041678L136.02864583333334,140.38752296978777L138.22265625,140.91590544033852L140.41666666666666,144.51461268533828L142.61067708333331,139.2155108118208L144.8046875,133.64934262022152L146.99869791666666,135.0828780197199L149.19270833333334,135.0480285642396L151.38671875,136.22047242469702L153.58072916666669,137.52070441810554L155.77473958333334,137.70407793701676L157.96875,138.41086772549752L160.16276041666666,132.569791091294L162.35677083333334,129.9602936264745L164.55078125,129.2895658427589L166.74479166666666,130.6770705628866L168.93880208333334,137.77454608172962L171.1328125,143.82297278339152L173.32682291666666,145.6620874140329L175.52083333333331,143.48387842975106L177.71484375,141.28198234400375L179.90885416666666,145.629229522712L182.10286458333334,145.25428290583704L184.296875,140.55428363929957L186.49088541666669,136.2425477070657L188.68489583333334,130.07544554649093L190.87890625,126.67356708871282L193.07291666666666,124.63244001404564L195.26692708333334,123.40776376924534L197.4609375,122.07637016575454L199.65494791666666,121.27753400366021L201.84895833333334,120.20146662927041L204.04296875,119.85420904320281L206.23697916666666,118.75088379638521L208.43098958333331,118.38727148686172L210.625,118.16910410114748L212.81901041666666,118.03820366971894L215.01302083333334,117.95966341086147L217.20703125,118.21074427359135L219.40104166666669,117.76480493461783L221.59505208333334,117.79562416980065L223.7890625,118.11232072895453L225.98307291666666,118.00413364640299L228.17708333333334,117.9392213968719L230.37109375,117.90027404715342L232.56510416666666,118.17511065536634L234.75911458333334,118.34001262029278L236.953125,118.43895379924994L239.14713541666666,118.20011348858058" style="fill: none;" fill="none"></path></g><g><path stroke="rgb(255, 112, 67)" stroke-width="2px" d="M26.328125,216.45910131039315L28.522135416666668,164.11206729943783L30.716145833333332,131.10390973994322L32.91015625,110.51859397631347L35.104166666666664,93.78662927570055L37.298177083333336,79.14692144626164L39.4921875,70.87360643470117L41.686197916666664,61.71133222897156L43.88020833333333,57.846306498910465L46.07421875,52.59638013596443L48.268229166666664,49.05544304433317L50.462239583333336,45.5902450724889L52.65625,45.10475153603105L54.85026041666667,43.371248019822225L57.044270833333336,38.60157558376284L59.23828125,34.69602070589284L61.432291666666664,35.13760291413465L63.626302083333336,34.01032723674547L65.8203125,34.129574683720094L68.01432291666667,36.190070212811776L70.20833333333333,33.79647115886276L72.40234375,33.80227728268871L74.59635416666667,31.270033063980414L76.79036458333334,30.44668185680437L78.984375,30.350456949747727L81.17838541666667,30.193320334821365L83.37239583333333,31.64038729393498L85.56640625,30.4700921951784L87.76041666666666,27.92818392051998L89.95442708333333,24.76211124932185L92.1484375,27.088906214135417L94.34244791666667,27.540222653066262L96.53645833333333,26.81664012319685L98.73046875,27.37686299135033L100.92447916666667,26.0224569804085L103.11848958333333,22.8728960496425L105.3125,19.938997381881144L107.50651041666667,24.79180346618417L109.70052083333334,28.250285223060953L111.89453125,25.452736285930012L114.08854166666667,25.564148315386237L116.28255208333333,26.57575597498197L118.4765625,23.254665204339574L120.67057291666666,22.057579764721122L122.86458333333333,23.029868218735253L125.05859375,24.458422239714277L127.25260416666667,25.514535818170224L129.44661458333331,22.965927875223176L131.640625,23.027901154468406L133.83463541666666,22.468319444879533L136.02864583333334,22.132570419125706L138.22265625,23.124474537421523L140.41666666666666,25.062161961427723L142.61067708333331,23.390670911011263L144.8046875,20.10047088595361L146.99869791666666,19.866680335197124L149.19270833333334,23.604671624020696L151.38671875,22.1680041233989L153.58072916666669,22.250764064805576L155.77473958333334,20.560268385897704L157.96875,23.275045178546538L160.16276041666666,23.90953888627714L162.35677083333334,23.693469433781626L164.55078125,20.729724257466966L166.74479166666666,18.653094313112884L168.93880208333334,17.65570943846385L171.1328125,21.53230981008656L173.32682291666666,22.814107918598758L175.52083333333331,23.086000599776817L177.71484375,23.000543116519577L179.90885416666666,22.899478879962192L182.10286458333334,22.192462734815283L184.296875,19.978311657370874L186.49088541666669,19.09721744823146L188.68489583333334,17.574188554888927L190.87890625,16.51117979960019L193.07291666666666,15.873374546426787L195.26692708333334,15.490691394522562L197.4609375,15.261081503380035L199.65494791666666,15.123315568694698L201.84895833333334,15.040656007883648L204.04296875,14.991060271396861L206.23697916666666,14.961302829504607L208.43098958333331,14.943448364369264L210.625,14.932735685288394L212.81901041666666,14.926308077839868L215.01302083333334,14.922451513370913L217.20703125,14.920137574689225L219.40104166666669,14.918749211479867L221.59505208333334,14.917916193554255L223.7890625,14.917416382798889L225.98307291666666,14.917116496345827L228.17708333333334,14.916936564473994L230.37109375,14.916828605350895L232.56510416666666,14.916763829877036L234.75911458333334,14.91672496459256L236.953125,14.91670164542237L239.14713541666666,14.916687653920095" style="fill: none;" fill="none"></path></g></g></g></g><g opacity="0.2"><g><g><g><path stroke="rgb(0, 119, 187)" stroke-width="2px" d="M24.134114583333332,217.78321099281294L26.328125,167.06657491127638L28.522135416666668,189.44173139333708L30.716145833333332,179.7456227938333L32.91015625,172.28738548358268L35.104166666666664,178.25415315230674L37.298177083333336,152.89561283588398L39.4921875,137.9791382153828L41.686197916666664,178.25415315230674L43.88020833333333,161.09980724255232L46.07421875,161.84576433897004L48.268229166666664,153.6415699323017L50.462239583333336,157.3709108630815L52.65625,143.94590588410685L54.85026041666667,140.21656495332707L57.044270833333336,148.4207593599954L59.23828125,149.91267355283088L61.432291666666664,152.15010029077519L63.626302083333336,125.30009033282587L65.8203125,156.62495376666374L68.01432291666667,146.18333262205113L70.20833333333333,140.21656495332707L72.40234375,140.21656495332707L74.59635416666667,134.249797284603L76.79036458333334,154.38752702871946L78.984375,153.6415699323017L81.17838541666667,154.38752702871946L83.37239583333333,158.11686795949925L85.56640625,151.40414319435743L87.76041666666666,127.53751707077016L89.95442708333333,126.04604742924363L92.1484375,132.75832764307648L94.34244791666667,130.5209009051322L96.53645833333333,155.13348412513722L98.73046875,147.67480226357767L100.92447916666667,140.96252204974482L103.11848958333333,129.0289867122967L105.3125,134.99575438102076L107.50651041666667,153.6415699323017L109.70052083333334,140.21656495332707L111.89453125,134.99575438102076L114.08854166666667,152.89561283588398L116.28255208333333,134.99575438102076L118.4765625,138.72509531180052L120.67057291666666,146.92928971846888L122.86458333333333,192.4251152276991L125.05859375,143.1999487876891L127.25260416666667,134.99575438102076L129.44661458333331,158.11686795949925L131.640625,142.45399169127134L133.83463541666666,135.74171147743849L136.02864583333334,136.48766857385624L138.22265625,141.70847914616255L140.41666666666666,149.91267355283088L142.61067708333331,131.26685800154993L144.8046875,125.30009033282587L146.99869791666666,137.23318111896504L149.19270833333334,134.99575438102076L151.38671875,137.9791382153828L153.58072916666669,139.47105240821827L155.77473958333334,137.9791382153828L157.96875,139.47105240821827L160.16276041666666,123.8081761399904L162.35677083333334,126.04604742924363L164.55078125,128.2834741671879L166.74479166666666,132.75832764307648L168.93880208333334,148.4207593599954L171.1328125,152.89561283588398L173.32682291666666,148.4207593599954L175.52083333333331,140.21656495332707L177.71484375,137.9791382153828L179.90885416666666,152.15010029077519L182.10286458333334,144.69186298052458L184.296875,133.5042847394942L186.49088541666669,129.77494380871445L188.68489583333334,120.82479230562836L190.87890625,121.5707494020461L193.07291666666666,121.5707494020461L195.26692708333334,121.5707494020461L197.4609375,120.07927976051957L199.65494791666666,120.07927976051957L201.84895833333334,118.58736556768409L204.04296875,119.33332266410181L206.23697916666666,117.09589592615754L208.43098958333331,117.8418530225753L210.625,117.8418530225753L212.81901041666666,117.8418530225753L215.01302083333334,117.8418530225753L217.20703125,118.58736556768409L219.40104166666669,117.09589592615754L221.59505208333334,117.8418530225753L223.7890625,118.58736556768409L225.98307291666666,117.8418530225753L228.17708333333334,117.8418530225753L230.37109375,117.8418530225753L232.56510416666666,118.58736556768409L234.75911458333334,118.58736556768409L236.953125,118.58736556768409L239.14713541666666,117.8418530225753" style="fill: none;" fill="none"></path></g><g><path stroke="rgb(255, 112, 67)" stroke-width="2px" d="M24.134114583333332,189.44173139333708L26.328125,140.58954350153593L28.522135416666668,102.5519553025563L30.716145833333332,88.00845923026397L32.91015625,82.0416915615399L35.104166666666664,69.85965204238887L37.298177083333336,57.80208688974376L39.4921875,58.67207380135849L41.686197916666664,48.1064228415489L43.88020833333333,52.08382340272265L46.07421875,44.75006045897799L48.268229166666664,43.75559918085731L50.462239583333336,40.39923679828642L52.65625,44.377081910769114L54.85026041666667,40.772215346495294L57.044270833333336,31.449085295200327L59.23828125,28.838680009047177L61.432291666666664,35.7999089558919L63.626302083333336,32.31951675812402L65.8203125,34.308439314365366L68.01432291666667,39.280745704968744L70.20833333333333,30.206119835376718L72.40234375,33.81098639965055L74.59635416666667,27.471684734026578L76.79036458333334,29.211658557256055L78.984375,30.206119835376718L81.17838541666667,29.957615653673795L83.37239583333333,33.81098639965055L85.56640625,28.714650193850186L87.76041666666666,24.11532235145569L89.95442708333333,20.01300287246704L92.1484375,30.5790983835856L94.34244791666667,28.217197279135373L96.53645833333333,25.731266359488156L98.73046875,28.217197279135373L100.92447916666667,23.990847984949735L103.11848958333333,18.14855468273163L105.3125,15.538149396578477L107.50651041666667,32.0710125764211L109.70052083333334,33.4380078514417L111.89453125,21.25641288359959L114.08854166666667,25.731266359488156L116.28255208333333,28.093167463938382L118.4765625,18.27302904923756L120.67057291666666,20.26195160547891L122.86458333333333,24.488300899664548L125.05859375,26.601253271102884L127.25260416666667,27.098706185817697L129.44661458333331,19.143015960852292L131.640625,23.120861073335004L133.83463541666666,21.62894688049951L136.02864583333334,21.62894688049951L138.22265625,24.61233071486154L140.41666666666666,27.968693097432446L142.61067708333331,20.883434335390714L144.8046875,15.165170848369598L146.99869791666666,19.51599450906117L149.19270833333334,29.211658557256055L151.38671875,20.01300287246704L153.58072916666669,22.374903976917267L155.77473958333334,18.024524867534637L157.96875,27.347210367520642L160.16276041666666,24.861279447873425L162.35677083333334,23.36936525503793L164.55078125,16.284106492996216L166.74479166666666,15.538149396578477L168.93880208333334,16.159632126490283L171.1328125,27.347210367520642L173.32682291666666,24.736805081367493L175.52083333333331,23.493839621543884L177.71484375,22.87235689163208L179.90885416666666,22.747882525126126L182.10286458333334,21.13193851709366L184.296875,16.657085041205097L186.49088541666669,17.775576134522748L188.68489583333334,15.289645214875533L190.87890625,14.916666666666673L193.07291666666666,14.916666666666673L195.26692708333334,14.916666666666673L197.4609375,14.916666666666673L199.65494791666666,14.916666666666673L201.84895833333334,14.916666666666673L204.04296875,14.916666666666673L206.23697916666666,14.916666666666673L208.43098958333331,14.916666666666673L210.625,14.916666666666673L212.81901041666666,14.916666666666673L215.01302083333334,14.916666666666673L217.20703125,14.916666666666673L219.40104166666669,14.916666666666673L221.59505208333334,14.916666666666673L223.7890625,14.916666666666673L225.98307291666666,14.916666666666673L228.17708333333334,14.916666666666673L230.37109375,14.916666666666673L232.56510416666666,14.916666666666673L234.75911458333334,14.916666666666673L236.953125,14.916666666666673L239.14713541666666,14.916666666666673" style="fill: none;" fill="none"></path></g></g></g></g></g></g><g transform="translate(66, 179)" clip-path="url(#clip_1)"><clipPath id="clip_1"><rect width="263" height="21"></rect></clipPath><g><g><line x1="0" y1="0" x2="0" y2="5" style="visibility: inherit;" fill="rgb(0, 0, 0)" stroke="rgb(204, 204, 204)" stroke-width="1px"></line><line x1="21.940104166666664" y1="0" x2="21.940104166666664" y2="5" style="visibility: inherit;" fill="rgb(0, 0, 0)" stroke="rgb(204, 204, 204)" stroke-width="1px"></line><line x1="43.88020833333333" y1="0" x2="43.88020833333333" y2="5" style="visibility: inherit;" fill="rgb(0, 0, 0)" stroke="rgb(204, 204, 204)" stroke-width="1px"></line><line x1="65.8203125" y1="0" x2="65.8203125" y2="5" style="visibility: inherit;" fill="rgb(0, 0, 0)" stroke="rgb(204, 204, 204)" stroke-width="1px"></line><line x1="87.76041666666666" y1="0" x2="87.76041666666666" y2="5" style="visibility: inherit;" fill="rgb(0, 0, 0)" stroke="rgb(204, 204, 204)" stroke-width="1px"></line><line x1="109.70052083333334" y1="0" x2="109.70052083333334" y2="5" style="visibility: inherit;" fill="rgb(0, 0, 0)" stroke="rgb(204, 204, 204)" stroke-width="1px"></line><line x1="131.640625" y1="0" x2="131.640625" y2="5" style="visibility: inherit;" fill="rgb(0, 0, 0)" stroke="rgb(204, 204, 204)" stroke-width="1px"></line><line x1="153.58072916666669" y1="0" x2="153.58072916666669" y2="5" style="visibility: inherit;" fill="rgb(0, 0, 0)" stroke="rgb(204, 204, 204)" stroke-width="1px"></line><line x1="175.52083333333331" y1="0" x2="175.52083333333331" y2="5" style="visibility: inherit;" fill="rgb(0, 0, 0)" stroke="rgb(204, 204, 204)" stroke-width="1px"></line><line x1="197.4609375" y1="0" x2="197.4609375" y2="5" style="visibility: inherit;" fill="rgb(0, 0, 0)" stroke="rgb(204, 204, 204)" stroke-width="1px"></line><line x1="219.40104166666669" y1="0" x2="219.40104166666669" y2="5" style="visibility: inherit;" fill="rgb(0, 0, 0)" stroke="rgb(204, 204, 204)" stroke-width="1px"></line><line x1="241.34114583333331" y1="0" x2="241.34114583333331" y2="5" style="visibility: inherit;" fill="rgb(0, 0, 0)" stroke="rgb(204, 204, 204)" stroke-width="1px"></line><line x1="263.28125" y1="0" x2="263.28125" y2="5" style="visibility: inherit;" fill="rgb(0, 0, 0)" stroke="rgb(204, 204, 204)" stroke-width="1px"></line></g><g transform="translate(0, 8)"><text x="0" y="0" dx="0em" dy="0.95em" style="text-anchor: middle; visibility: hidden; font-family: Roboto, sans-serif; font-size: 12px; font-weight: 200;" fill="rgb(33, 33, 33)" stroke="none" stroke-width="1px">-10</text><text x="21.940104166666664" y="0" dx="0em" dy="0.95em" style="text-anchor: middle; visibility: hidden; font-family: Roboto, sans-serif; font-size: 12px; font-weight: 200;" fill="rgb(33, 33, 33)" stroke="none" stroke-width="1px">0</text><text x="43.88020833333333" y="0" dx="0em" dy="0.95em" style="text-anchor: middle; visibility: hidden; font-family: Roboto, sans-serif; font-size: 12px; font-weight: 200;" fill="rgb(33, 33, 33)" stroke="none" stroke-width="1px">10</text><text x="65.8203125" y="0" dx="0em" dy="0.95em" style="text-anchor: middle; visibility: hidden; font-family: Roboto, sans-serif; font-size: 12px; font-weight: 200;" fill="rgb(33, 33, 33)" stroke="none" stroke-width="1px">20</text><text x="87.76041666666666" y="0" dx="0em" dy="0.95em" style="text-anchor: middle; visibility: hidden; font-family: Roboto, sans-serif; font-size: 12px; font-weight: 200;" fill="rgb(33, 33, 33)" stroke="none" stroke-width="1px">30</text><text x="109.70052083333334" y="0" dx="0em" dy="0.95em" style="text-anchor: middle; visibility: hidden; font-family: Roboto, sans-serif; font-size: 12px; font-weight: 200;" fill="rgb(33, 33, 33)" stroke="none" stroke-width="1px">40</text><text x="131.640625" y="0" dx="0em" dy="0.95em" style="text-anchor: middle; visibility: hidden; font-family: Roboto, sans-serif; font-size: 12px; font-weight: 200;" fill="rgb(33, 33, 33)" stroke="none" stroke-width="1px">50</text><text x="153.58072916666669" y="0" dx="0em" dy="0.95em" style="text-anchor: middle; visibility: hidden; font-family: Roboto, sans-serif; font-size: 12px; font-weight: 200;" fill="rgb(33, 33, 33)" stroke="none" stroke-width="1px">60</text><text x="175.52083333333331" y="0" dx="0em" dy="0.95em" style="text-anchor: middle; visibility: hidden; font-family: Roboto, sans-serif; font-size: 12px; font-weight: 200;" fill="rgb(33, 33, 33)" stroke="none" stroke-width="1px">70</text><text x="197.4609375" y="0" dx="0em" dy="0.95em" style="text-anchor: middle; visibility: hidden; font-family: Roboto, sans-serif; font-size: 12px; font-weight: 200;" fill="rgb(33, 33, 33)" stroke="none" stroke-width="1px">80</text><text x="219.40104166666669" y="0" dx="0em" dy="0.95em" style="text-anchor: middle; visibility: hidden; font-family: Roboto, sans-serif; font-size: 12px; font-weight: 200;" fill="rgb(33, 33, 33)" stroke="none" stroke-width="1px">90</text><text x="241.34114583333331" y="0" dx="0em" dy="0.95em" style="text-anchor: middle; visibility: hidden; font-family: Roboto, sans-serif; font-size: 12px; font-weight: 200;" fill="rgb(33, 33, 33)" stroke="none" stroke-width="1px">100</text><text x="263.28125" y="0" dx="0em" dy="0.95em" style="text-anchor: middle; visibility: hidden; font-family: Roboto, sans-serif; font-size: 12px; font-weight: 200;" fill="rgb(33, 33, 33)" stroke="none" stroke-width="1px">110</text></g><line x1="0" y1="0" x2="263.28125" y2="0" fill="rgb(0, 0, 0)" stroke="rgb(204, 204, 204)" stroke-width="1px"></line></g></g></g></g></svg>